# xmcd CD database file
#
# Track frame offsets:
#	150
#	67158
#	96230
#	143714
#	181112
#	206269
#	236478
#	265016
#	296718
#
# Disc length: 4466 seconds
#
# Revision: 0
# Processed by: cddbd v1.5.1PL2 Copyright (c) Steve Scherf et al.
# Submitted via: CDex 1.51
#
DISCID=81117009
DTITLE=Derek and The Dominos - Live At The Fillmore
DYEAR=1994
DGENRE=Blues
TTITLE0=Why Does Love Got To Be So Sad?
TTITLE1=Key To The Highway
TTITLE2=Blues Power
TTITLE3=Have You Ever Loved A Woman?
TTITLE4=Nobody Knows You When You're Down And Out
TTITLE5=Roll It Over
TTITLE6=Presence Of The Lord
TTITLE7=Little Wing
TTITLE8=Crossroads
EXTD=YEAR: 1994
EXTT0=
EXTT1=
EXTT2=
EXTT3=
EXTT4=
EXTT5=
EXTT6=
EXTT7=
EXTT8=
PLAYORDER=
